<svg width="424" height="438" viewBox="0 0 424 438" fill="none" xmlns="http://www.w3.org/2000/svg">
<path d="M63.0129 75.4661C67.4676 62.102 68.7485 55.7354 68.7485 54.4353C68.7485 40.4261 70.6604 78.6015 75.421 110.387C78.4647 130.709 78.3079 160.01 79.8948 178.985C80.8819 190.788 82.1317 202.224 85.6209 228.952C86.7195 237.368 87.8674 266.387 87.5519 307.798C87.3556 333.562 84.6936 348.827 83.0972 389.493C82.7644 397.971 80.2581 399.186 78.3366 399.521C76.4152 399.855 74.5224 399.225 73.5474 397.007C72.5723 394.789 72.5723 391.003 72.5723 387.103M20.9514 102.232C33.6463 78.1045 47.6796 56.3854 56.6081 43.6523C63.5019 33.8208 63.6438 25.1453 65.5461 21.6369C66.3126 20.2233 68.7103 21.2832 70.6317 22.8701C81.8614 32.1444 84.6554 50.5733 88.1733 58.2304C91.809 66.144 96.1267 73.5159 101.547 83.0754C108.248 92.6539 113.334 100.282 116.536 107.939C117.177 109.861 117.807 111.754 120.369 113.704M384.209 392.839C351.86 392.839 318.594 393.47 296.789 394.426C277.523 395.27 241.545 394.751 221.757 394.435C189.869 393.927 169.505 391.577 133.571 391.242C111.499 391.037 87.8865 393.47 84.7032 395.372C83.4127 396.644 82.7818 398.536 83.4031 400.458C84.0245 402.379 85.9173 404.272 89.7793 406.222M347.884 356.513C360.54 357.775 386.045 362.861 396.923 368.281C401.157 370.39 402.047 376.244 402.688 381.329C395.107 395.324 378.512 410.027 371.83 413.525C368.934 415.131 367.041 416.393 365.091 417.693M129.929 163.413C152.814 150.718 173.176 135.423 191.033 122.365C196.768 118.216 204.339 113.168 209.186 110.253C214.033 107.337 215.925 106.706 221.699 102.232M154.783 224.593C159.831 222.7 164.878 220.808 194.923 201.851C224.969 182.895 279.859 146.932 309.397 127.775C338.936 108.618 341.46 107.356 345.972 106.056M170.078 287.685C174.495 285.162 178.911 282.638 203.584 266.196C228.257 249.753 273.052 219.469 297.391 203.553C321.494 187.79 324.202 187.019 326.434 186.383L326.499 186.365C328.746 185.724 330.638 185.094 334.5 184.443M198.757 352.689C208.851 350.166 238.658 334.354 277.201 311.421C298.156 297.264 307.677 289.635 317.542 283.269C321.729 280.688 324.253 279.426 326.853 278.126" stroke="black" stroke-width="40" stroke-linecap="round"/>
</svg>
