<svg width="480" height="448" viewBox="0 0 480 448" fill="none" xmlns="http://www.w3.org/2000/svg">
<path d="M128.456 28.3986C117.863 22.9168 108.257 21.5489 101.911 21.0296C90.8175 20.1216 74.9956 20.8496 69.1693 22.2226C64.3023 23.3695 59.5685 25.6423 55.4494 27.7044C48.7411 31.0627 43.7916 39.6913 41.0456 44.4891C37.1073 51.3701 36.5923 56.8257 34.8696 62.4875C32.9782 68.7037 31.4499 80.419 29.7272 91.2746C27.2958 106.596 21.8439 127.77 21.3245 134.142C21.2254 135.358 20.8154 136.368 20.6406 151.487C20.4657 166.605 20.4657 195.794 20.6354 211.509C20.8536 231.712 23.2015 238.517 23.7209 246.066C24.3575 255.319 25.2584 267.664 26.4618 275.871C29.2527 294.907 27.6651 303.29 28.5187 311.204C29.1844 317.376 29.722 322.173 30.5757 326.811C31.6719 332.768 33.4863 338.978 34.0056 343.951C34.5028 348.711 36.5717 353.377 37.9447 359.373C39.2305 364.988 39.6571 369.833 41.8838 374.121C44.2858 378.748 45.4783 383.203 46.1777 386.818C46.2706 387.298 46.3248 387.579 46.3459 387.689M46.3459 387.689C46.36 387.763 46.3594 387.76 46.3459 387.689ZM46.3459 387.689C46.1878 386.865 44.2584 376.778 43.2671 370.589C39.8984 349.556 42.0638 343.833 41.2101 334.772C38.7781 308.958 42.7426 304.051 44.2853 299.932C46.1528 294.946 50.6207 290.681 54.3901 286.732C58.2035 282.736 64.32 280.047 68.7888 277.47C72.6009 275.272 77.0114 274.554 84.5296 273.351C101.49 270.637 105.809 275.562 110.782 278.308C115.41 280.864 118.5 285.497 121.077 289.617C123.644 293.721 125.021 298.868 127.247 302.987C129.492 307.138 130.163 312.238 130.683 318.064C131.093 322.673 132.57 327.994 133.593 331.794C134.549 335.343 136.334 322.913 137.537 318.275C138.794 313.431 138.741 307.836 139.594 295.211C140.191 286.39 139.769 269.741 139.599 260.495C139.43 251.249 139.09 249.892 138.916 240.877C138.418 215.236 138.401 197.079 137.887 190.276C135.739 161.852 138.741 151.549 139.764 143.778C140.427 138.743 141.476 133.324 141.656 92.4985C141.717 78.7981 140.119 70.5868 139.939 57.0777C141.137 51.0354 142.166 47.95 142.68 45.389C142.855 43.8464 142.855 41.8101 142.855 39.7121M64.6903 395.565C60.6175 392.85 57.1618 390.772 54.7655 390.253C53.7384 390.03 53.0479 391.431 52.8679 392.464C52.1325 396.688 56.7916 400.687 59.7073 404.636C62.9046 408.967 68.7836 411.321 73.0724 413.898C77.8196 416.75 83.1823 416.814 88.155 418.187C92.8131 419.473 98.9386 420.249 107.341 421.956C114.638 423.438 122.264 425.041 128.6 426.245C132.463 426.978 136.324 426.759 146.362 427.273C169.606 428.464 186.719 427.109 190.139 426.594C196.277 425.671 207.896 425.391 219.096 424.537C231.945 423.558 238.133 422.655 248.747 422.136C255.056 421.827 259.052 419.57 272.9 419.05C281.039 418.745 287.15 417.513 297.944 416.993C304.02 416.701 309.447 415.456 318.004 414.937C321.471 414.726 333.699 414.078 350.664 414.247C367.002 414.411 386.234 415.785 393.433 416.304C399.05 416.71 403.718 418.192 411.58 419.045C423.814 419.22 432.875 419.56 435.945 420.074C437.997 420.249 441.051 420.249 445.227 418.192M450.369 389.394C451.048 389.734 451.727 390.073 452.246 389.739C458.467 385.735 456.191 370.223 457.564 361.487C459.137 351.472 459.276 336.962 459.795 320.893C460.239 307.179 459.297 285.909 457.574 276.298C455.928 267.115 455.862 260.855 455.342 254.005C455.106 250.887 454.483 240.018 454.653 224.941C454.854 207.087 454.833 185.776 453.63 177.06C451.491 161.571 452.426 153.914 451.573 147.723C450.819 142.258 450.369 115.716 449.516 99.0447C449.164 92.1643 448.312 81.9617 447.459 71.9803C445.937 54.185 448.312 50.696 447.294 48.639C444.101 42.188 419.001 48.9682 405.656 47.7751C396.412 46.9486 389.031 45.2039 373.126 44.6845C362.611 44.3412 353.034 43.147 332.007 42.967C322.771 42.8879 318.745 45.533 313.433 46.9061C307.142 48.532 300.932 49.6469 294.756 51.1897C283.287 54.0543 276.927 53.7609 268.02 54.2802C265.939 54.4016 264.585 54.7893 253.195 54.9642C241.804 55.139 220.422 55.139 208.898 54.9693C192.592 54.1105 185.722 53.7711 180.61 53.2569C176.856 53.0821 170.747 53.0821 164.453 52.0536M202.506 144.617C201.488 142.92 200.47 141.223 200.454 140.009C200.394 135.285 208.657 134.681 213.799 133.308C220.816 131.435 229.905 131.596 235.227 131.077C243.598 130.26 256.645 129.539 264.014 129.02C271.089 128.521 276.536 127.482 285.777 126.963C292.349 126.593 300.52 125.425 327.703 124.906C343.356 124.607 359.843 123.368 368.23 122.849C373.355 122.531 386.151 120.962 394.986 120.108C397.547 119.933 399.964 119.594 402.525 119.079C404.067 118.905 406.104 118.905 409.23 117.876M198.392 170.329C199.071 173.044 199.76 188.018 200.444 209.436C200.884 223.2 204.892 232.675 205.761 239.046C206.443 244.046 207.299 250.18 208.502 257.204C210.099 266.524 209.706 285.703 208.852 297.155C208.416 302.998 207.649 317.277 208.672 326.642C209.017 327.675 209.356 328.694 209.531 330.067C209.706 331.44 209.706 333.137 209.706 333.857M234.389 338.999C236.076 338.999 251.092 336.963 269.98 335.744C280.022 335.096 289.516 333.857 296.252 333.003C301.552 332.331 309.077 331.121 320.226 329.917C328.616 329.012 339.561 328.714 350.381 327.861C355.305 327.472 364.142 327.686 368.518 327.177C372.894 326.667 372.555 325.649 372.21 324.616C370.837 320.497 370.148 313.678 369.295 306.797C368.405 299.624 367.412 294.116 366.893 288.454C365.938 278.039 365.355 264.29 364.836 253.846C363.977 245.449 364.656 236.161 365.176 234.279C365.016 233.415 363.998 232.737 362.949 232.037M232.332 244.379C236.744 247.464 247.739 246.786 280.028 246.266C286.831 246.097 287.849 245.757 288.883 245.413C289.917 245.068 290.935 244.729 293.012 244.379M289.927 221.752C290.606 221.752 290.955 212.928 290.616 199.049C290.277 193.994 289.598 192.976 289.078 191.942C288.559 190.908 288.22 189.89 287.87 186.784" stroke="black" stroke-width="40" stroke-linecap="round"/>
</svg>
