<svg width="492" height="427" viewBox="0 0 492 427" fill="none" xmlns="http://www.w3.org/2000/svg">
<path d="M26.948 126.86C27.7034 123.838 28.4588 120.817 28.8479 121.526C35.0692 132.871 26.948 185.918 28.8479 216.1C29.5227 226.819 31.5262 266.174 33.4261 293.506C35.5214 323.648 36.1043 332.832 38.0043 348.421C40.8876 372.078 40.6596 389.327 45.2264 392.371C49.7931 395.416 54.3942 398.483 77.8459 400.772C138.783 406.72 182.583 402.306 190.927 403.451C206.682 405.612 219.209 404.595 243.416 405.74C265.336 406.776 306.904 406.129 329.818 406.507C377.028 407.285 418.337 406.907 438.149 404.996C448.205 404.026 445.852 387.862 450.029 378.316C454.971 367.025 456.519 355.815 461.475 339.047C464.608 328.444 465.675 319.189 466.831 302.044C468.398 278.807 470.253 246.717 472.931 232.982C476.596 214.188 475.61 169.986 473.71 142.54C472.941 131.429 469.521 122.327 468.365 107.46C467.912 101.632 465.698 97.1245 464.553 92.1801C457.86 63.267 373.425 81.8563 360.823 79.1781C346.952 76.2299 328.467 76.4998 292.368 74.5999C267.06 73.2679 218.682 74.2107 192.644 74.5884C164.319 74.9993 139.342 76.4998 103.495 76.8775C78.7447 77.1383 62.1084 82.5888 46.4625 83.7448C40.6333 84.1755 32.3502 85.6562 23.1939 87.167C17.7686 88.0622 21.5915 99.3449 22.7475 108.513C23.1252 110.813 23.8806 113.079 24.2697 118.024C24.6589 122.968 24.6589 130.522 24.6589 138.305M148.27 33.0071C148.27 27.7193 148.27 22.4315 147.137 21.2183C146.004 20.0051 143.737 23.0267 141.815 26.8495C139.892 30.6722 138.381 35.2046 137.603 48.4928C136.824 61.781 136.824 83.6876 141.402 106.258M322.241 39.8744C322.241 37.6082 322.241 35.342 321.108 36.4407C310.954 46.2869 313.084 62.6737 311.184 78.7088C310.795 85.5417 310.795 96.8727 311.928 102.71C313.061 108.547 315.328 108.547 317.662 108.547M104.777 190.954H139.113M111.644 252.76H127.668M107.066 316.854H141.402M237.544 195.533C238.3 196.288 239.055 197.043 243.599 197.432C248.143 197.822 256.452 197.822 265.013 197.822M239.833 245.893H245.899C248.944 245.893 253.476 245.893 256.944 246.27C260.412 246.648 262.678 247.403 265.013 248.182M230.677 312.276C241.253 313.787 248.967 314.565 253.911 314.943C259.611 316.076 264.99 317.61 269.557 318.754C271.858 319.143 274.124 319.143 276.459 319.143M358.866 202.4C355.844 202.4 352.823 202.4 352.777 202.022C352.731 201.644 355.753 200.889 361.842 200.5C367.931 200.111 376.996 200.111 386.335 200.111M347.421 255.049H400.07M335.975 332.878C342.774 332.123 349.572 331.367 358.362 330.978C367.153 330.589 377.728 330.589 388.624 330.589" stroke="black" stroke-width="40" stroke-linecap="round"/>
</svg>
