<svg width="475" height="501" viewBox="0 0 475 501" fill="none" xmlns="http://www.w3.org/2000/svg">
<path d="M10.4034 10.8145C12.2921 16.4805 13.2436 23.0839 14.4222 52.2308C15.3326 74.7432 14.6637 117.405 14.4293 140.076C14.1804 164.163 13.2436 178.255 13.4779 198.832C13.6555 214.426 16.0837 232.204 17.4967 243.919C18.558 252.719 19.8611 264.013 20.5783 272.314C21.3464 281.204 24.1213 289.574 25.7828 306.551C30.4937 354.687 23.1841 366.258 21.7711 372.911C18.1436 389.992 21.2812 419.767 21.9983 438.419C22.3399 447.304 24.1213 454.786 27.1958 462.134C28.4675 465.174 29.8016 468.063 31.9246 470.662C36.0424 475.703 43.0367 476.115 97.0491 476.364C126.248 476.498 160.42 476.115 167.769 476.832C174.345 477.474 181.721 481.312 190.717 483.457C195.316 484.553 199.259 484.167 214.276 484.877C227.874 485.52 253.662 485.118 267.877 485.353C291.079 485.735 304.33 487.476 324.395 488.193C330.862 488.424 338.383 489.379 347.841 489.613C353.591 489.755 374.694 490.799 404.509 490.564C419.52 490.446 425.973 485.601 440.628 484.884C449.66 483.698 454.872 483.23 457.939 482.52C459.6 482.278 461.475 482.278 464.826 480.858M87.0873 70.4575C101.714 70.4575 121.538 68.583 134.148 67.383C147.152 66.1457 161.357 65.26 185.924 64.5429C196.946 64.2211 205.379 62.4198 214.858 61.7027C219.618 61.3426 242.145 60.517 274.082 60.2826C288.697 60.1754 309.854 59.0969 338.483 58.8626C348.835 58.6283 350.709 58.1596 363.625 57.9182C376.54 57.6768 400.44 57.6768 422.224 60.517M88.5074 147.141C96.9426 149.016 109.255 149.981 122.731 149.747C148.5 149.299 181.721 149.499 189.304 150.216C193.129 150.578 216.569 151.402 250.168 151.167C268.398 151.04 276.866 149.044 289.163 148.327C298.243 147.798 309.499 146.204 318.296 145.487C333.127 144.278 356.872 143.364 366.33 142.647C370.59 141.944 382.363 141.461 396.336 142.398C400.469 143.336 398.594 145.21 396.663 147.141M133.95 269.267H112.407C89.9505 269.267 150.934 264.553 162.543 261.94C180.711 257.851 202.539 255.067 217.173 253.888C237.296 252.267 252.27 253.178 257.688 252.468C266.315 251.337 274.508 251.758 298.685 250.814C320.039 249.98 359.883 249.869 380.872 250.331C401.86 250.792 402.798 252.198 403.28 253.86C403.763 255.521 403.763 257.396 403.763 259.327M141.05 395.654C137.77 395.654 134.489 395.654 133.971 395.185C127.121 388.992 158.034 394.688 166.583 395.888C181.564 397.991 206.316 396.137 216.513 395.419C221.969 395.036 249.203 394.234 287.296 393.999C315.644 393.825 338.412 393.751 344.333 398.004C351.978 403.495 364.91 400.851 372.259 401.568C373.928 401.803 375.333 402.271 376.995 402.747C378.656 403.223 380.531 403.691 383.882 404.174M132.53 327.49C155.123 329.393 185.498 326.553 200.871 325.836C213.473 325.248 226.68 323.713 242.287 322.996C267.282 321.847 302.427 322.747 309.776 323.464C316.642 324.65 322.805 325.119 336.182 325.829C348.153 326.07 370.647 326.07 393.823 326.07" stroke="black" stroke-width="20" stroke-linecap="round"/>
</svg>
