<svg width="441" height="511" viewBox="0 0 441 511" fill="none" xmlns="http://www.w3.org/2000/svg">
<path d="M146.264 23.3009C145.768 24.7902 145.512 35.4857 145.388 50.901C145.292 62.88 144.264 74.9283 143.26 78.8207C142.436 82.013 141.751 87.1958 143.737 92.837C145.815 98.7401 155.027 94.5067 161.996 94.1306C189.09 92.6684 192.13 94.7549 195.143 95.3792C198.357 96.0453 201.908 96.2592 205.169 96.8835C209.377 97.6893 216.906 97.7635 222.965 98.3878C229.966 99.1093 234.491 99.7642 254.495 100.144C262.607 100.298 267.586 101.269 274.979 101.648C277.642 101.785 280.38 102.276 283.26 101.78C287.247 101.093 286.66 95.0257 288.289 90.8851C290.149 86.1542 290.677 81.9835 291.925 77.7226C292.993 74.0777 293.43 69.4527 293.809 61.1904C294.076 55.3897 294.934 48.889 295.314 45.8766C295.729 42.5822 296.438 38.6147 297.442 35.3466C297.907 33.8346 298.198 31.5896 297.826 29.2091C297.314 25.9356 290.947 27.0617 287.431 26.4374C282.725 25.6019 277.168 25.5574 272.14 24.809C267.86 24.1719 262.366 23.5567 256.228 23.1768C249.316 22.749 243.306 22.0524 240.294 21.6725C236.758 21.2266 229.301 20.0517 224.251 18.9159C220.07 17.9758 216.981 17.5395 213.345 17.1597C209.431 16.7508 204.947 16.0352 194.319 15.9036C189.144 16.7798 180.683 17.2838 174.361 17.908C173.109 18.0359 171.371 18.0359 169.581 19.5402M20.6558 54.8911C35.631 54.8911 51.223 55.3875 58.3571 55.8915C66.1082 56.439 73.0052 58.1404 78.6802 58.776C86.7733 59.6823 98.3526 59.9004 111.241 60.2803C113.915 60.4044 114.659 60.6526 115.663 60.7804C116.667 60.9083 117.908 60.9083 119.187 62.4126M317.002 65.4212C320.477 65.4212 335.918 65.4212 356.975 65.5453C365.133 65.5934 370.856 66.1733 378.749 66.2974C382.442 66.3555 392.623 66.9255 407.41 67.0496C413.769 67.103 417.263 67.6776 420.651 67.8017C422.267 67.8609 417.805 76.1468 416.289 82.4536C415.379 86.2418 414.285 91.2198 413.905 98.4893C413.666 103.051 409.802 120.93 406.515 132.964C404.328 140.97 404.507 146.127 404.127 153.644C403.709 161.92 403.002 172.452 402.622 178.345C402.193 185.013 401.002 191.496 400.242 198.645C399.644 204.27 398.986 209.314 398.862 212.692C398.746 215.841 398.234 225.794 398.11 239.201C398.006 250.429 397.233 259.212 396.857 273.006C396.515 285.556 396.729 309.388 396.978 322.656C397.321 340.988 398.73 344.949 399.61 351.463C400.185 355.72 400.49 359.24 401.114 362.508C401.684 365.49 402.491 369.514 403.495 373.41C404.742 378.251 405.499 381.308 405.879 396.93C406.043 403.679 407.756 407.633 408.636 411.27C409.438 414.583 409.516 418.66 410.14 422.052C410.803 425.651 411.517 429.19 412.397 433.082C413.103 436.205 414.029 439.223 414.777 442.608C416.077 448.487 417.037 454.011 417.662 459.396C418.574 467.265 418.542 474.785 419.29 480.964C419.542 482.344 419.79 484.081 419.918 485.721C420.046 487.361 420.046 488.85 420.046 490.384M28.1772 482.111C28.9294 475.108 29.1776 470.34 29.5537 456.297C29.8964 443.5 29.6815 419.171 29.8056 406.144C29.9297 393.117 30.178 392.124 30.3058 385.283C30.4337 378.442 30.4337 365.784 30.806 357.525C31.5814 340.326 34.1944 335.457 34.8187 332.445C35.4847 329.231 35.6987 325.183 36.9473 317.921C38.102 311.205 38.7073 304.123 39.3316 295.89C40.5712 279.544 39.7077 267.756 40.0837 263.401C41.8222 243.27 42.468 233.677 43.7166 226.283C44.4553 221.909 44.7245 208.946 43.9761 200.819C43.6692 197.486 42.7238 193.061 42.7162 182.045C42.7107 173.953 46.9809 164.72 47.6052 161.211C48.5732 155.771 46.4845 152.189 45.4804 148.048C44.3605 143.43 43.4759 138.906 42.5959 133.141C41.3059 124.69 41.2195 121.095 40.2154 118.083C37.056 108.605 38.963 91.0092 38.083 86.7483C37.4176 83.5267 36.7066 80.4792 36.3268 77.4668C35.2023 74.4545 33.698 71.4534 33.8146 58.5766C34.1869 55.899 34.9315 55.4026 36.4509 53.3868M51.4938 485.119C58.2481 484.367 63.2574 483.871 67.398 482.867C72.252 481.69 76.796 481.359 80.5605 480.734C86.2676 479.788 89.8383 479.854 94.7235 478.606C98.0497 477.756 101.12 477.598 106.002 476.974C112.369 476.159 120.872 476.094 126.697 476.718C128.195 476.878 130.951 477.342 137.806 478.094C150.299 479.465 164.256 477.109 173.902 475.229C181.024 473.84 185.602 473.837 190.246 473.213C196.106 472.425 207.098 472.333 215.311 471.709C225.705 470.919 229.738 473.085 233.867 474.83C242.751 478.584 248.03 478.847 252.298 479.975C258.989 481.743 261.584 481.607 272.644 481.983C282.706 482.325 301.823 482.111 312.165 482.235C325.778 482.398 329.773 483.359 343.523 483.491C349.688 483.55 353.09 480.862 358.464 479.982C370.246 478.053 373.398 478.606 378.907 478.474C382.431 479.35 388.659 479.854 396.177 479.606C398.978 479.358 399.723 478.862 401.994 476.846M123.266 201.531C134.821 187.778 141.417 180.074 146.392 172.082C151.121 164.486 156.311 158.568 159.609 156.634C166.09 152.833 172.825 167.875 179.718 176.702C186.805 185.778 194.315 192.671 200.662 199.853C203.395 202.945 206.448 207.019 211.118 210.325C213.346 211.903 216.333 211.449 218.284 210.358C226.165 205.951 225.194 193.861 228.773 186.406C232.399 178.852 234.55 172.9 239.493 169.594C249.578 162.848 270.256 179.413 290.44 187.736C299.754 191.577 306.723 192.704 313.343 196.555C316.641 198.754 319.964 200.969 323.262 202.895C324.923 203.73 326.56 204.275 329.899 204.837M134.837 310.633C144.739 298.533 158.972 283.192 175.288 268.513C177.795 266.257 180.528 268.183 182.198 269.836C190.122 277.681 193.786 289.11 199.555 297.648C203.275 303.153 207.556 306.765 211.126 308.418C212.954 309.264 215.242 308.98 216.639 308.162C224.381 303.627 226.285 284.812 230.971 276.216C231.908 274.497 233.988 273.737 235.922 273.448C245.391 272.031 256.007 285.242 270.876 291.606C286.614 298.343 296.804 286.961 303.425 282.82C306.723 281.44 310.591 281.424 314.988 282.796C317.203 283.622 319.385 284.713 323.286 285.837M103.429 418.082C120.472 398.84 130.407 386.707 136.193 380.087C142.035 373.402 146.938 365.217 152.996 361.333C161.875 355.639 179.9 388.757 190.19 400.419C194.678 405.505 199.29 408.709 203.134 409.263C208.047 409.971 212.515 407.073 216.085 403.783C225.874 394.765 226.847 385.054 230.426 377.061C234.707 367.501 240.617 357.481 243.915 356.101C252.907 352.337 266.454 377.78 289.589 387.203C297.333 388.327 301.78 388.873 308.078 389.699C312.74 389.98 320.377 389.98 328.246 389.98" stroke="black" stroke-width="40" stroke-linecap="round"/>
</svg>
