<svg width="373" height="483" viewBox="0 0 373 483" fill="none" xmlns="http://www.w3.org/2000/svg">
<path d="M188 130.5C174 119.5 171.472 109.88 167.322 102.844C158.108 87.2232 150.857 81.6702 142.557 72.8221C138.063 68.0324 132.434 62.8781 127.171 58.5164C121.351 53.6926 113.641 49.1204 106.388 45.4965C94.7092 39.6613 87.5798 38.9865 80.7064 38.0697C71.7082 36.8694 60.1077 38.5959 51.5959 40.5923C44.549 42.2451 40.5561 45.4748 33.6881 51.784C31.1219 54.1415 30.4114 56.6828 28.2577 64.039C23.0777 81.7321 19.9195 99.6703 20.0985 110.504C20.4251 130.263 27.5145 150.329 28.415 160.077C30.2486 179.926 29.6845 186.502 32.7442 198.779C33.9502 203.618 35.8255 208.56 40.133 220.783C48.6815 245.04 57.1674 261.378 58.0679 264.807C59.6533 270.842 70.1114 287.646 77.229 299.711C80.4974 305.251 84.9975 310.192 88.4424 315.986C91.9409 321.87 96.2164 326.467 116.761 357.113C125.779 370.566 130.567 374.576 133.112 378.921C135.857 383.609 139.247 388.312 143.593 394.284C148.469 400.987 153.699 409.99 158.604 416.711C161.833 421.137 165.287 424.854 169.454 426.856C170.365 426.688 171.081 425.614 171.629 424.523C172.177 423.433 172.535 422.359 172.904 421.252M193 131C193.927 127.738 200.029 125.808 201.466 120.188C203.475 112.334 206.17 104.846 207.618 97.0446C208.805 90.654 210.51 83.493 216.819 71.7479C222.025 62.0564 229.302 55.2614 232.926 51.2849C237.608 46.1475 251.284 36.8816 259.687 31.5651C265.757 27.7247 275.588 25.5977 281.919 23.9702L282.111 23.9208C290.89 21.6636 296.685 20.1739 312.261 20.3409C322.152 20.4469 325.866 26.661 335.615 36.2198C341.992 42.4728 345.396 49.7931 347.941 54.8654C351.065 61.0931 352.644 67.5002 352.655 100.864C352.66 115.741 347.263 132.86 343.438 145.457C341.048 153.329 337.107 162.633 332.957 172.929C328.855 183.106 324.087 196.984 319.937 207.649C316.657 216.079 313.237 225.562 308.908 234.779C304.783 243.562 298.416 254.141 295.698 259.387C293.117 264.369 290.821 270.416 287.566 277.1C283.58 285.283 279.971 289.946 275.094 298.794C271.85 304.679 268.752 308.391 266.045 313.094C262.526 319.209 256.861 330.026 252.662 338.049C249.215 344.636 245.62 349.252 240.374 358.469C237.157 364.121 232.969 371.646 229.334 377.836C226.467 382.719 225.352 388.68 224.805 395.907C224.355 401.83 222.097 407.473 220.649 412.556C219.394 416.961 217.041 421.946 215.045 426.661C213.048 431.378 209.446 435.335 206.729 439.681C204.267 443.616 203.653 448.355 201.304 452.701C199.096 456.784 197.87 460.301 195.705 461.57C191.031 464.312 187.378 453.824 183.949 449.478C180.649 445.296 177.266 441.52 173.821 437.722C171.841 436.095 170.018 434.283 168.575 432.118C167.848 431.028 167.132 429.954 166.394 427.762" stroke="black" stroke-width="40" stroke-linecap="round"/>
</svg>
