<svg width="476" height="498" viewBox="0 0 476 498" fill="none" xmlns="http://www.w3.org/2000/svg">
<path d="M20.2409 232.916C22.2057 231.606 24.1706 230.296 32.7147 219.961C41.2588 209.625 56.3226 190.304 64.7377 179.696C76.5969 164.746 82.8632 159.023 88.5903 153.791L88.8566 153.548C94.8376 148.084 100.919 142.97 106.719 137.671C114.065 130.959 121.44 123.123 126.238 118.811C131.203 114.349 135.988 107.245 138.98 102.279C144.709 92.7673 152.203 85.4136 157.825 79.4546C162.488 74.5109 171.355 68.2262 178.828 63.0759C184.645 59.066 190.23 54.6509 194.879 51.1628L195.027 51.0328C198.919 47.6268 201.521 45.3497 202.986 43.5565C203.815 42.7229 204.797 42.068 207.794 40.4008M234.587 50.3243C235.242 50.9792 236.89 52.299 241.003 55.7524C248.302 61.8801 262.601 73.0787 278.638 84.1533C290.724 92.5004 301.352 103.196 310.968 111.329C315.365 115.047 326.776 126.636 337.27 136.47C342.406 141.283 348.668 147.534 353.654 151.697C355.714 153.417 367.78 162.707 385.796 176.258C398.919 186.128 403.246 193.182 407.246 198.169C410.234 201.895 412.535 206.103 417.655 211.724C421.253 215.674 424.106 219.341 429.231 223.305C435.448 228.114 438.991 231.904 442.965 234.891C446.939 237.54 449.916 239.525 451.896 240.681C452.894 241.182 453.876 241.51 455.88 241.847M324.891 30.4774C325.546 34.4071 326.866 48.2205 329.173 69.6849C330.498 79.3603 332.135 86.5647 332.979 92.2409C333.822 97.9171 333.822 101.847 333.822 104.903M353.669 25.5156C358.908 25.5156 371.759 24.2057 387.632 22.0573C393.353 21.2188 394.335 20.8913 396.479 20.7226C398.622 20.5539 401.897 20.5539 405.271 20.5539M419.164 172.383C419.164 171.083 421.783 152.675 423.297 135.874C423.642 132.038 424.125 121.207 423.962 106.327C423.47 99.9614 423.133 83.2304 423.297 58.9229C423.461 50.3342 423.788 49.3518 426.11 46.3549M66.8811 225.969C66.2262 231.864 66.2163 241.45 67.0399 253.338C68.4188 273.241 69.5208 291.742 70.0219 301.353C70.4897 310.325 71.5055 318.218 75.3012 330.121C77.712 337.681 81.4091 357.455 82.9224 370.827C83.8194 378.753 84.4059 387.364 84.9071 408.973C85.0824 416.533 86.3906 421.104 88.3753 426.403C90.1346 431.101 89.7051 439.919 90.5287 450.84C91.7121 466.53 91.6798 477.36 93.6596 477.693C100.852 478.9 111.834 471.416 116.484 470.915C126.006 469.889 141.287 469.431 145.425 468.93C147.926 468.627 150.556 468.102 153.85 467.774C158.535 467.308 177.528 466.117 202.827 465.953C217.701 465.857 228.276 464.47 232.588 463.969C237.327 463.418 242.506 462.148 256.31 461.324C266.465 460.718 285.475 461.155 295.914 461.319C307.673 461.503 320.475 462.148 338.496 461.984C351.343 461.867 360.595 460.5 385.161 459.999C396.655 459.765 407.236 458.516 411.542 457.687C415.088 457.005 413.865 449.604 414.366 432.774C414.624 424.095 415.849 417.512 416.023 384.546C416.079 373.807 413.884 367.914 413.046 362.928C412.708 360.916 412.217 347.164 412.381 326.831C412.482 314.271 413.865 310.339 414.366 300.599C415.194 285.619 414.539 261.059 414.038 251.805C413.875 249.796 413.547 248.813 413.21 247.801" stroke="black" stroke-width="40" stroke-linecap="round"/>
</svg>
