<svg width="325" height="445" viewBox="0 0 325 445" fill="none" xmlns="http://www.w3.org/2000/svg">
<path d="M48.9555 28.1842C48.7385 26.8823 48.5215 25.5804 48.1182 24.455M48.1182 24.455C47.9037 23.8564 47.6364 23.3077 47.2884 22.8355C46.2862 21.4757 44.6242 20.8109 42.937 20.6346C36.8545 19.9992 32.8591 24.1349 28.4925 27.9979C24.844 31.2256 23.441 35.5575 22.9373 38.9017C22.2408 43.5265 23.0985 47.3125 24.1008 49.4883C27.2256 56.2719 40.8368 58.725 49.2627 59.0776C53.7182 59.264 57.3361 56.7306 59.683 55.2247C61.7802 53.8791 63.0474 50.697 64.5583 46.5168C66.5519 41.0012 63.7424 35.5878 61.063 32.4047C58.5436 29.4118 54.3545 26.8546 49.3282 24.84C48.9173 24.6754 48.5133 24.5478 48.1182 24.455ZM48.1182 24.455C46.3134 24.0312 44.6925 24.3342 43.4406 25.1523C40.1644 27.2932 39.8899 32.5256 40.3885 36.2173C40.583 37.6573 41.8843 37.9146 42.8967 38.0858C43.909 38.2571 44.9062 38.2571 45.4199 37.2598C45.9336 36.2626 45.9336 34.2682 45.435 32.9084C44.9364 31.5485 43.9392 30.8837 40.8972 30.1988M128.365 44.1256C125.705 43.7932 123.046 43.4608 124.335 43.2896C137.974 41.4782 144.118 42.1111 151.164 41.275C156.474 40.6451 160.92 40.7714 186.037 40.2677C209.819 39.7908 256.028 40.0965 276.838 40.0965C297.649 40.0965 291.665 40.0965 288.084 40.2627C284.504 40.4289 283.506 40.7613 282.328 40.9326C281.149 41.1038 279.82 41.1038 277.443 42.1111M57.0137 208.488C57.9 206.715 58.5954 204.931 59.0507 203.201M59.0507 203.201C59.62 201.037 59.814 198.959 59.537 197.096C59.324 195.663 58.0412 195.071 57.0289 194.562C50.6626 191.363 39.2453 194.043 30.6884 198.063C27.6807 199.475 25.798 201.094 23.9547 202.6C19.9387 205.881 20.0867 212.497 20.0767 224.222C20.0699 232.053 29.4545 236.672 34.6672 239.704C39.2269 242.356 46.5581 244.408 54.6366 244.252C61.724 244.115 65.0519 234.033 67.2477 229.656C69.3053 225.555 70.7732 221.603 70.4509 214.894C67.1315 210.455 63.3747 206.042 59.0507 203.201ZM59.0507 203.201C58.1261 202.593 57.1756 202.057 56.1978 201.608C54.3545 201.437 51.6953 201.437 48.9555 201.437M147.531 222.002C144.872 221.669 142.213 221.337 141.341 220.999C138.432 219.873 154.844 218.98 163.114 218.144C169.58 217.49 174.718 217.64 179.719 217.136C190.649 216.036 199.225 216.633 218.192 216.129C235.83 215.958 269.735 215.958 286.702 216.124C303.67 216.29 302.673 216.623 301.645 216.965M57.9018 386.974C59.8962 382.321 60.5912 378.926 59.589 376.917C58.4237 374.58 55.8973 373.547 53.223 373.044C45.6101 371.61 38.8037 377.546 33.5759 381.923C31.2121 383.902 27.9799 387.631 25.0531 393.986M25.0531 393.986C24.9287 394.256 24.8048 394.531 24.6816 394.811C21.2213 402.666 23.9866 409.124 25.155 411.633C28.7168 419.278 34.7141 422.552 41.0852 424.073C48.9394 425.948 53.8525 421.907 59.2213 418.885C66.1404 414.991 68.9618 410.162 71.1576 405.962C73.6329 401.227 74.0183 397.067 74.8544 392.036C76.3995 382.737 71.0166 377.264 66.9824 373.054C63.1765 369.081 56.2498 368.178 47.5268 368.002C39.1783 367.833 32.3974 377.889 28.8719 381.923C27.2175 383.816 26.0112 386.289 25.0039 389.467C24.5985 390.747 24.5974 392.327 25.0531 393.986ZM25.0531 393.986C25.2358 394.651 25.4919 395.329 25.8248 396.005C28.4076 401.248 33.3744 403.756 37.0561 404.763C41.2614 405.914 45.1294 404.108 47.8088 401.932C50.6579 399.619 52.1905 397.057 52.8603 395.048C53.5302 393.038 53.8727 390.681 53.374 388.334C53.1386 387.226 51.8782 386.652 50.6997 386.31C49.5212 385.967 48.1916 385.967 47.008 386.299C45.8245 386.632 44.8272 387.297 43.7998 388.989M142 402C156.348 399.2 173.835 398.276 187.393 397.569C193.689 397.241 198.99 395.476 204.363 394.769C209.777 394.057 215.088 392.676 228.647 391.969C238.24 391.469 250.304 389.876 261.357 389.169C263.737 388.938 264.733 388.476 271.721 388.238C278.709 388 291.658 388 305 388" stroke="black" stroke-width="40" stroke-linecap="round"/>
</svg>
