<svg width="505" height="506" viewBox="0 0 505 506" fill="none" xmlns="http://www.w3.org/2000/svg">
<path d="M28.3528 26.703C28.3528 26.0054 28.3528 25.3077 28.5272 25.4716C32.7864 29.4726 30.1075 41.1209 30.6413 46.5911C31.5146 55.5398 32.2216 69.6609 33.1042 75.4746M33.1042 75.4746C34.7167 86.0961 32.5704 69.83 33.1042 75.4746ZM33.1042 75.4746C34.0334 85.3007 32.5704 99.427 33.1042 108.406C33.7833 119.831 32.5915 140.968 31.6983 148.41C31.3575 151.249 30.8157 171.147 30.9901 199.856C31.0608 211.484 31.8727 227.212 31.6983 249.753C31.5854 264.351 30.1181 273.478 29.5843 282.992C29.4643 285.131 29.061 286.522 28.8813 305.205C28.7016 323.888 28.7016 359.817 28.8761 379.023C29.1397 408.051 29.6684 415.576 29.1346 421.565C28.6824 426.637 29.9278 421.092 28.8761 425.5C27.584 430.915 27.1161 435.891 25.705 441.176C24.9573 443.976 25.0072 431.239 25.7049 441.281C25.9464 444.757 24.4576 463.754 25.6996 463.58C30.6682 462.882 29.621 465.705 59.1387 465.171C66.2969 465.042 81.6588 464.289 103.851 464.114C117.035 464.011 126.17 462.534 146.904 462C151.552 461.881 153.294 461.477 166.052 461.297C178.811 461.118 202.531 461.118 215.448 460.943C229.768 460.75 242.36 460.061 259.97 460.235C267.83 460.313 274.483 461.118 282.934 461.292C299.112 461.626 323.138 462.872 332.107 463.406C339.394 463.84 347.767 465.684 355.547 466.752C364.804 468.022 369.648 469.215 377.391 469.748C383.784 470.189 390.789 471.329 397.126 472.565C403.729 473.854 408.758 473.802 414.392 474.679C422.076 475.876 429.18 476.614 438.519 477.148C450.64 477.84 469.009 478.728 473.243 479.262C474.305 479.436 475.351 479.785 476.414 479.965C477.476 480.144 478.523 480.144 479.601 480.144M86.5 385.5C94.3444 375.341 83.1867 393.509 95.3856 373.619C98.7755 368.091 101.531 363.529 104.584 357.711C106.507 354.048 110.834 345.517 116.503 332.575C120.355 323.783 123.666 319.25 125.846 316.345C127.926 313.573 135.547 303.307 146.75 289.628C154.449 280.227 159.761 275.581 164.426 270.192C170.298 263.407 176.655 255.193 180.298 250.393C184.839 244.409 187.417 237.46 192.235 230.882C195.669 226.194 198.791 222.872 202.861 220.963C207.544 218.768 210.723 227.205 213.497 230.415C217.106 234.592 225.556 240.011 232.116 245.252C242.661 253.677 252.059 261.273 257.602 265.208C261.496 267.973 265.756 271.179 270.701 275.101C278.544 281.323 282.057 284.282 285.852 287.339C286.743 288.057 287.595 288.649 288.473 288.658C289.351 288.667 290.216 288.09 290.949 287.361C292.413 285.906 296.601 273.345 304.73 251.694C308.558 241.498 313.878 233.416 318.385 226.57L318.553 226.314C331.311 206.931 336.513 203.078 343.781 195.369C346.828 192.136 350.193 188.227 354.119 184.013C356.963 180.961 364.991 169.665 376.779 154.819C383.469 146.394 387.178 142.506 389.952 138.283C392.566 134.302 397.067 130.574 401.015 126.053C403.815 122.848 404.946 118.921 406.554 115.278C408.431 111.023 411.935 108.438 414.267 104.94C416.791 101.154 422.976 97.9559 427.366 95.3266C429.108 94.1648 430.576 92.706 431.017 91.6839C430.882 91.5267 430.017 92.1032 427.379 94.4443" stroke="black" stroke-width="50" stroke-linecap="round"/>
</svg>
