<svg width="294" height="500" viewBox="0 0 294 500" fill="none" xmlns="http://www.w3.org/2000/svg">
<path d="M241.5 42.5C238.35 39.8004 230.775 36.7 216.5 29C208.347 24.6024 196.566 22.4028 188.743 21.7245C178.963 20.8765 171.554 20.8144 167.15 20.4736C151.829 19.2878 147.7 21.0394 143.723 21.6052C138.639 22.3283 134.98 22.4028 128.742 23.6435C115.535 26.2706 110.001 29.8881 105.768 31.8276C101.111 33.9612 95.2083 37.6187 91.5679 40.0047C82.3952 46.0168 68.3895 57.1567 66.2251 59.887C63.9711 62.7301 61.5724 65.3373 57.1446 71.1217C53.5537 75.8128 50.215 80.1033 46.5746 84.3095C44.8419 86.3115 41.8094 89.8655 36.2671 100.142C32.3016 107.495 27.8001 120.093 24.9131 128.379C22.026 136.665 21.3511 140.49 21.0034 153.146C20.6558 165.802 20.6558 187.174 21.4431 202.57C22.2305 217.967 23.8053 226.74 24.8415 231.823C26.1166 238.076 27.6911 242.563 29.2795 248.238C30.2524 251.715 32.2313 259.572 34.2765 270.248C35.1939 275.037 36.3216 282.3 38.8167 292.744C40.9702 301.758 45.1703 308.669 47.3518 313.485C48.0009 314.919 49.731 320.265 51.4352 327.873C52.272 331.608 53.8144 339.108 56.9912 349.892C59.6637 358.965 62.6767 365.033 65.5263 370.177C66.0957 371.205 66.5489 372.328 71.055 380.331C75.5612 388.334 84.1099 403.182 88.8512 411.056C95.2095 421.615 100.389 426.633 103.249 430.171C106.32 433.97 108.815 438.236 110.635 440.966C112.39 443.597 113.587 446.417 115.408 449.147L120.861 457.328C122.681 460.058 124.495 462.778 125.749 465.508C127.453 468.238 128.817 470.284 129.611 471.644C129.955 472.329 130.18 473.004 131.094 473.017M224.5 36.5001C247.555 45.5001 260.593 55.9842 262.662 60.7937C264.34 64.696 265.16 68.0642 266.524 71.9261C269.225 79.5782 271.527 93.0559 272.659 103.916C274.108 117.824 272.666 127.83 272.325 132.459C271.129 148.698 271.527 157.314 270.962 164.07C270.342 171.47 267.219 183.261 265.965 188.155C265.289 190.792 264.485 193.5 263.02 200.382C259.77 215.641 257.211 226.679 257.099 228.833C256.889 232.85 254.28 245.447 251.877 254.169C250.681 258.51 248.363 265.721 247.555 271.103C247.091 274.192 246.536 277.351 246.191 282.457C245.92 286.476 245.172 290.072 244.828 295.297C244.615 298.534 243.809 302.561 243.464 305.987C243.186 308.762 238.396 325.835 235.287 337.564C232.926 346.473 226.548 356.198 224.496 359.273C222.461 362.321 221.994 365.742 220.521 369.717C217.497 377.88 215.408 380.74 213.929 384.265C211.545 389.945 209.505 392.561 206.434 398.12C204.68 401.295 202.688 405.5 199.051 412.321C196.781 416.577 196.089 422.325 194.841 425.624C192.555 431.671 188.822 436.191 186.889 438.809C184.975 441.401 181.336 444.59 178.142 447.671C175.181 450.528 170.879 455.715 167.351 460.617C164.332 464.812 160.421 467.782 158.144 470.393C155.186 473.692 153.372 475.962 151.671 477.551C150.87 478.239 150.195 478.689 148.818 479.153M161.455 108.294C153.947 106.183 144.081 104.763 135.937 106.755C128.304 108.622 120.746 116.996 111.003 124.5C98.7649 133.925 94.8681 143.311 91.6581 149.83C90.7375 151.7 90.8283 157.917 91.1779 167.783C91.6946 182.368 96.6903 188.766 100.232 193.738C101.853 196.014 107.612 198.619 116.035 202.43L116.307 202.553C130.466 208.959 136.241 207.878 141.185 208.464C150.31 209.546 155.55 207.412 161.667 204.477C166.215 202.295 169.21 198.951 172.155 195.882C175.227 192.681 177.925 190.235 180.397 187.29C182.945 184.255 183.815 181.054 185.344 178.109C187.13 174.67 189.451 164.64 190.062 150.014C190.484 139.905 184.295 135.147 182.766 131.732C180.77 127.274 176.3 121.262 172.299 117.253C169.231 115.597 166.646 114.185 164.531 113.245C163.581 112.772 162.881 112.306 161.455 111.826" stroke="black" stroke-width="40" stroke-linecap="round"/>
</svg>
