<svg width="461" height="459" viewBox="0 0 461 459" fill="none" xmlns="http://www.w3.org/2000/svg">
<path d="M27.691 424.958V409.428C27.691 394.473 27.691 364.859 27.5472 349.028C27.393 332.043 26.8197 327.987 26.676 323.056C26.3546 312.033 26.5235 296.326 27.6866 291.817C28.1795 289.906 28.5623 274.954 28.4185 253.033C28.3159 237.386 27.116 224.586 26.9635 211.552C26.8874 205.043 29.1373 201.062 30.3004 197.573C32.6025 190.667 30.601 179.281 29.5816 175.648C28.4364 171.566 28.5623 166.229 27.8391 159.12C26.0872 141.896 29.1373 138.332 29.5773 133.396C30.5283 122.728 29.7297 105.224 28.5666 101.735C27.4035 98.2452 26.2447 94.1939 25.0816 90.4083C24.0013 86.8923 22.7597 83.4425 20.8734 79.9532C19.9774 78.2956 19.8497 76.1763 20.1372 74.0025C20.9997 72.1162 22.1672 70.365 23.4697 68.7706C24.1972 68.0387 25.0598 67.4637 25.9485 66M311.639 418.859C312.502 418.284 313.364 417.709 313.233 416.838C312.386 411.188 306.429 408.126 304.53 404.932C302.501 401.522 301.48 397.967 299.594 394.334C297.559 390.414 297.699 386.065 296.976 380.694C295.906 372.751 295.956 361.74 295.233 354.256C294.825 350.036 294.214 339.087 293.491 329.159C292.285 312.613 291.896 308.523 291.456 303.291C291.014 298.036 290.154 291.673 290.001 276.614C289.938 270.384 292.175 265.832 292.615 260.6C292.986 256.194 293.918 251.595 294.358 243.767C295.008 232.197 294.51 214.131 293.491 209.775C292.361 204.946 292.471 196.741 291.748 182.413C291.276 173.062 291.6 155.513 291.456 145.903C291.295 135.136 290.729 124.183 290.873 108.652C291.004 94.4981 292.175 81.7 293.338 78.2106C294.501 74.7213 295.66 71.2449 297.69 67.7555C298.274 66.8799 298.849 66.0174 299.441 66M437.592 35C437.592 37.5789 438.167 46.3089 438.607 57.0297C438.836 62.6181 439.622 66.3565 440.058 83.908C440.472 100.593 440.206 133.086 440.062 150.254C439.894 170.349 438.463 176.684 437.74 189.844C437.258 198.619 437.592 215.019 437.448 224.037C437.248 236.559 435.571 243.475 433.536 251.181C432.73 254.234 431.232 259.105 430.491 269.673C429.751 280.242 429.751 296.343 429.607 305.068C429.449 314.665 428.879 325.033 429.023 339.84C429.114 349.238 430.326 355.606 430.766 359.818C431.187 363.85 432.364 370.103 433.231 374.921C434.107 379.713 434.394 383.495 435.261 384.658C435.841 384.958 436.703 384.671 437.592 382.632M149.426 35.0227C150.227 34.222 150.639 54.6269 150.84 87.1691C150.924 100.909 151.853 113.767 151.652 130.945C151.559 138.937 150.239 142.166 149.632 151.999C148.214 174.999 149.827 191.905 150.433 195.932C152.004 206.362 151.853 236.936 150.645 254.781C150.546 256.254 149.839 257.802 149.632 270.637C149.426 283.472 149.426 307.492 149.626 320.466C149.884 337.138 151.853 345.123 153.06 351.631C153.866 354.052 154.279 359.292 153.678 365.758C153.078 368.221 151.877 369.022 147 369.847M50.6708 438.461C52.6622 437.328 61.7606 430.496 67.9663 425.741C72.22 422.481 81.5023 415.338 92.5534 405.304C96.8633 401.39 102.137 397.57 110.154 391.703C115.366 387.889 119.887 383.837 123.758 381.532C128.093 378.951 133.603 375.253 138.208 373.09C141.876 371.367 145.071 368.661 149.221 366.228C153.257 363.861 156.229 360.936 159.667 359.923C163.292 358.855 168.795 364.902 186.219 376.901C195.343 383.184 201.137 383.802 205.3 385.952C209.484 388.113 214.304 389.244 219.733 391.527C231.599 396.517 236.621 396.969 243.054 400.394C252.269 405.299 264.929 408.402 270.388 410.132C274.708 411.5 278.68 413.278 282.551 415.136C286.473 417.019 290.13 417.569 294.28 419.427C297.678 420.949 301.855 421.569 305.584 423.007C307.268 423.656 309.022 424.153 310.734 424.44C314.662 425.1 319.021 419.595 324.309 417.157C330.603 414.255 336.763 412.428 342.458 411.149C351.713 409.071 365.028 405.57 378.886 403.853C388.44 402.669 394.272 402.986 400.392 402.557C410.761 402.411 418.88 402.128 421.88 401.699C423.181 401.553 424.03 401.553 424.906 399.836M48.9542 55.6427C46.9716 56.7756 44.9886 57.9087 44.5337 58.2091C42.0941 59.8202 57.4517 53.102 65.1038 50.3553C70.2247 48.5172 76.9703 45.9263 89.2488 41.4973C95.7261 39.1608 101.296 36.4846 106.87 33.622C110.643 31.6851 114.171 30.1844 117.608 28.3261C120.839 26.5797 124.471 25.3262 127.908 23.1761C131.022 21.2287 134.771 20.7427 138.208 20.3092C143.355 19.6603 150.221 20.159 157.203 21.159C175.957 23.8446 184.228 27.5922 193.829 30.0256C208.43 33.7264 214.871 34.7507 221.313 36.609C227.157 38.295 232.329 39.9008 236.913 41.7591C241.404 43.58 245.496 45.0508 249.359 47.0507C255.052 49.9984 259.796 51.9175 263.526 53.9174C267.034 55.799 270.955 58.767 275.109 61.7841C280.244 65.5133 284.121 67.6422 287.559 68.9469C291.926 70.6043 296.996 64.8097 304.121 61.5266C314.601 56.6968 323.322 54.5011 326.317 53.7887C339.324 50.6954 357.08 45.9263 360.518 45.0594C364.374 44.0869 367.38 40.7763 370.818 39.3386C374.161 37.9404 377.68 37.0511 384.251 35.1928C390.933 33.3028 397.422 33.6177 400.86 32.4719C404.297 31.326 408.289 30.1844 412.018 29.7509C416.589 29.0342 421.464 28.751 423.743 28.3218C425.172 28.1759 427.155 28.1759 429.198 28.1759" stroke="black" stroke-width="40" stroke-linecap="round"/>
</svg>
