<svg width="492" height="299" viewBox="0 0 492 299" fill="none" xmlns="http://www.w3.org/2000/svg">
<path d="M20.6001 33.8708C22.1951 51.288 23.2478 81.1461 25.1139 91.5056C28.2798 109.08 26.98 146.253 25.6562 170.721C24.4619 192.793 23.7901 222.366 25.1139 240.916C26.0444 253.954 26.98 265.59 29.0934 274.427C31.5756 284.805 59.8687 271.524 71.3207 269.937C92.2658 267.034 119.776 266.739 139.124 265.415C150.83 264.614 161.437 262.496 174.995 260.367C181.633 259.324 198.569 258.764 220.619 258.501C231.644 258.369 252.224 257.169 280.391 257.432C292.793 257.548 311.781 258.764 338.09 259.027C354.5 259.191 366.138 261.411 394.25 262.217C412.911 262.752 435.265 264.601 442.976 265.407C446.499 265.775 450.162 266.739 454.141 266.476C456.03 266.351 457.594 265.686 458.408 263.046C460.593 255.954 459.748 249.21 460.545 232.606C461.266 217.596 460.816 189.159 461.079 173.464C461.477 149.741 465.059 139.172 465.864 121.93C466.358 111.362 468.791 100.924 470.115 90.5406C472.441 72.2968 471.981 61.0653 471.192 48.8397C470.642 40.331 460.306 37.0926 454.197 34.1419C446.737 30.5386 433.255 32.2758 423.366 30.9519C413.044 29.5701 404.513 28.0331 381.426 24.8431C366.828 22.8261 341.416 22.7059 308.686 21.382C290.516 20.6471 255.765 21.1109 237.08 20.8477C203.586 20.3759 175.888 20.5686 160.752 21.374C136.14 22.6837 97.7336 23.7585 89.2164 24.564C70.6986 25.8958 44.5408 25.3695 43.4642 24.572C43.9666 24.3008 46.5984 24.3008 49.3098 24.3008M285.96 108.911C284.131 94.1626 277.671 83.9884 269.819 78.8944C263.904 75.057 248.646 70.5984 237.016 68.2559C227.224 66.2835 220.84 65.0262 195.73 64.7836C188.925 64.7179 185.716 66.8559 182.028 68.9281C174.458 73.1829 172.769 81.1607 171.147 89.2349C168.363 103.096 176.885 111.641 181.967 116.737L181.98 116.75C188.689 123.477 214.658 128.733 226.336 133.619C231.864 135.932 237.215 138.824 242.659 141.767L242.97 141.935C248.71 145.038 260.927 151.825 274.83 164.543C278.604 167.996 279.487 171.73 280.18 177.018C281.284 185.44 279.044 193.437 276.049 198.282C271.387 205.826 261.98 207.77 242.602 208.483C236.524 208.707 226.897 203.667 211.685 195.378C186.201 175.487 176.928 165.756 175.313 162.991C174.613 161.598 174.155 160.225 175.07 157.425M204.179 229.504C206.48 217.057 215.656 195.017 222.413 177.108C227.936 162.471 238.305 135.857 242.755 114.559C251.473 72.8275 248.978 67.3549 251.529 61.8034C253.137 59.0381 254.537 56.252 255.687 53.4867C256.38 52.0936 257.295 50.7213 258.238 49.3075" stroke="black" stroke-width="40" stroke-linecap="round"/>
</svg>
