<svg width="349" height="502" viewBox="0 0 349 502" fill="none" xmlns="http://www.w3.org/2000/svg">
<path d="M326.02 28.8363C325.654 27.0084 325.288 25.1805 323.821 24.056C317.41 19.1455 302.135 21.0815 291.339 22.001C278.804 23.0687 272.135 23.2972 266.219 24.2167C260.348 25.1292 254.41 25.5128 240.955 28.2713C231.262 30.2587 222.283 31.052 213.609 32.8909C203.234 35.0904 187.586 38.0534 174.297 41.0113C165.6 42.9473 159.137 45.8082 150.645 48.5833C145.524 50.257 139.949 57.5954 122.435 69.7815C111.384 77.47 101.198 83.8066 95.4203 89.7501C91.3189 93.9694 70.666 115.778 58.8621 130.551C55.0508 135.321 53.1402 140.704 48.72 148.254C39.3063 164.333 36.5228 168.4 33.0165 177.783C28.7074 189.315 28.0147 199.054 26.918 207.124C24.6069 224.131 21.3678 236.72 21.185 240.22C21.019 243.399 20.2599 258.754 20.6255 281.448C20.8211 293.588 23.2068 298.758 24.4974 302.441C25.7532 306.026 32.3795 322.997 42.8983 346.439C48.8811 359.771 53.4725 364.485 59.7484 372.6C63.93 378.007 67.8743 381.479 76.5374 389.4C90.7863 402.428 108.133 419.876 115.677 426.878C129.957 440.131 136.914 447.926 143.206 453.117C148.746 457.686 155.747 459.404 171.417 465.48C179.952 468.79 186.768 469.345 193.428 469.888L193.978 469.933C200.492 470.467 207.815 471.59 213.924 472.149C218.706 472.587 222.97 474.913 227.772 476.209C234.217 477.949 239.587 478.237 244.024 479.715C245.137 480.087 246.234 480.452 257.218 480.641C268.202 480.829 289.04 480.829 300.324 481.012C311.607 481.194 312.704 481.56 314.731 481.748C316.758 481.937 319.683 481.937 323.804 480.829M328.235 55.4241C325.3 55.4241 307.696 61.2734 295.034 67.9591C283.908 73.8333 278.051 76.8273 272.861 79.6024C267.974 82.2151 262.896 86.7977 255.518 93.6164C249.822 98.8801 244.439 103.038 238.706 109.131C233.667 114.487 227.069 119.656 220.433 126.851C214.971 132.773 209.72 142.167 206.574 148.454C201.158 159.276 193.125 167.248 186.821 178.171C181.929 186.649 177.97 201.923 176.098 211.417C174.239 220.843 172.785 230.394 171.849 238.01C171.054 244.481 170.193 252.595 169.999 270.824C169.917 278.559 173.494 284.345 176.264 291.718C183.029 309.728 185.68 315.741 187.719 320.178C189.825 324.763 193.058 330.497 198.049 337.526C201.738 342.722 206.352 350.438 210.789 354.891C215.771 359.892 220.754 365.216 224.089 370.03C227.876 375.497 232.94 381.479 237.194 385.539C240.996 389.167 244.943 393.804 249.092 398.677L249.38 399.016C253.411 403.749 256.204 408.798 259.539 413.235C262.87 417.666 266.552 422.092 272.268 428.551C276.862 433.741 279.845 438.709 283.906 442.963C287.661 446.898 292.763 449.056 297.2 451.095C301.785 453.202 306.057 454.241 310.493 456.446C311.607 457.188 312.704 457.919 313.817 457.93C314.93 457.941 316.027 457.21 317.157 456.457" stroke="black" stroke-width="40" stroke-linecap="round"/>
</svg>
