<svg width="236" height="485" viewBox="0 0 236 485" fill="none" xmlns="http://www.w3.org/2000/svg">
<path d="M66.2409 160.672C53.5589 153.796 41.1606 143.602 35.7037 138.68C29.474 133.061 25.8811 123.608 21.8702 115.406C17.756 106.993 21.1226 93.027 25.2972 85.0325C28.1292 79.6092 31.6655 74.4733 36.746 68.1159C45.3557 57.3421 51.6599 54.8281 57.3078 50.6372C61.7334 47.3533 66.9394 43.9142 72.9476 39.5431C79.4432 34.8174 85.4931 31.5377 90.2353 28.6237C92.4648 27.2537 97.8477 24.6292 105.116 21.7206C109.412 20.0019 124.674 19.8816 145.951 20.0617C157.294 20.1577 162.982 23.8761 168.81 26.239C176.004 29.1554 184.09 33.3276 189.367 36.4217C195.423 39.9731 204.433 47.8432 211.92 60.7599C217.139 69.7623 215.391 77.3327 215.222 89.6764C215.037 103.164 210.676 109.354 209.945 117.703C208.879 129.88 206.311 136.988 203.773 144.263C198.19 160.269 192.865 164.644 188.674 170.472C184.717 175.975 177.978 184.268 171.763 189.577C165.389 195.022 158.333 201.73 153.383 208.671C148.505 215.513 139.408 223.929 133.744 230.679C128.703 236.687 126.29 242.133 121.193 251.765C119.964 254.087 119.37 255.951 118.999 268.403C118.628 280.856 118.628 303.906 118.988 316.321C119.348 328.736 120.069 329.816 120.98 330.733C121.891 331.65 122.972 332.37 124.085 332.021M129.858 434.125C130.368 432.341 130.7 430.683 130.836 429.18M130.836 429.18C130.855 428.968 130.871 428.758 130.882 428.552M130.836 429.18C131.49 429.806 132.148 430.496 132.805 431.254C134.663 433.4 136.257 435.471 137.419 437.413M130.836 429.18C130.267 428.636 129.7 428.139 129.139 427.686M130.882 428.552C131.018 426.094 130.589 424.09 129.509 422.681C127.782 420.429 122.972 421.028 118.431 421.208C112.195 421.455 104.451 430.065 97.6785 441.721C94.7203 446.812 96.3528 452.544 97.4394 456.359L97.4711 456.471C97.9656 458.208 99.2774 459.205 100.374 459.942C101.72 460.845 103.383 461.354 105.224 461.577M130.882 428.552C133.073 429.788 135.049 431.541 136.243 434.157C136.748 435.264 137.136 436.353 137.419 437.413M130.882 428.552C130.312 428.23 129.728 427.944 129.139 427.686M105.224 461.577C110.653 462.234 117.635 460.405 122.627 458.865M105.224 461.577C103.542 460.276 102.06 458.386 102.022 455.352C101.884 444.223 103.173 435.84 106.655 430.696M105.224 461.577C106.232 462.357 107.311 462.925 108.194 463.401C110.717 464.762 114.557 464.323 118.551 463.057C120.231 461.552 121.566 460.167 122.627 458.865M122.627 458.865C123.673 458.542 124.632 458.232 125.471 457.961C132.512 455.68 137.487 449.426 139.124 445.251C139.977 443.077 139.207 440.398 137.419 437.413M122.627 458.865C122.985 458.427 123.311 457.997 123.608 457.577M137.419 437.413C138.25 440.524 138.177 443.393 137.493 445.786C136.767 448.324 135.15 451.157 132.205 453.42C130.129 455.016 127.406 456.912 123.608 457.577M129.139 427.686C125.72 424.926 122.519 423.8 120.243 423.396C115.436 422.544 110.955 424.651 108.412 427.374C107.683 428.156 107.098 429.296 106.655 430.696M129.139 427.686C127.057 426.775 124.919 426.225 123.163 425.764C116.686 424.067 111.315 426.114 109.318 427.745C108.316 428.564 107.431 429.55 106.655 430.696M106.655 430.696C104.724 436.79 105.466 447.805 108.554 455.57C110.111 459.485 117.1 458.135 122 457.775C122.557 457.734 123.092 457.667 123.608 457.577M123.608 457.577C125.309 455.17 126.076 453.027 126.399 450.888C126.584 448.706 126.584 445.824 125.493 440.673" stroke="black" stroke-width="40" stroke-linecap="round"/>
</svg>
