<svg width="464" height="429" viewBox="0 0 464 429" fill="none" xmlns="http://www.w3.org/2000/svg">
<path d="M20.7415 408.944C22.314 401.647 23.3519 390.105 24.146 379.891C24.7144 372.581 27.0316 362.365 28.3369 352.631C28.721 349.767 28.6042 345.602 29.3826 342.944C30.161 340.287 31.7178 339.249 34.3361 338.714C45.653 336.403 53.1988 340.79 61.3368 341.584C68.6195 342.295 75.7492 345.508 82.0472 347.607C88.3453 349.706 97.2144 350.76 106.123 349.722C114.809 348.71 111.949 332.99 113.514 322.234C115.229 310.443 116.132 301.004 119.262 270.151C120.878 254.211 143.337 262.697 163.191 261.392C194.818 259.313 216.256 259.049 216.783 255.125C220.008 231.109 216.775 188.819 217.569 179.91C217.903 176.172 219.92 173.078 222.271 170.459C230.24 161.584 253.95 167.306 274.629 166.512C291.181 165.877 310.059 164.161 315.578 160.246C326.112 152.773 318.991 139.032 320.831 127.78C324.435 105.737 323.708 98.1458 326.327 91.5726C331.684 78.1222 363.525 89.1823 371.129 91.2817C372.981 91.793 374.533 92.3274 375.595 91.8163C386.551 86.541 378.748 58.8322 379.542 45.4734C379.811 40.9403 380.855 34.725 381.374 26.8701C381.893 23.6857 382.931 22.1289 393.325 21.3269C403.72 20.5249 423.439 20.5249 443.757 20.5249" stroke="black" stroke-width="40" stroke-linecap="round"/>
</svg>
