<svg width="484" height="464" viewBox="0 0 484 464" fill="none" xmlns="http://www.w3.org/2000/svg">
<path d="M291.446 150.571C292.051 148.905 292.584 147.29 293.041 145.738M293.041 145.738C294.437 141.004 295.125 136.864 295.009 133.718C294.911 131.036 293.314 128.593 291.153 125.656C287.014 120.031 280.629 119.607 258.716 112.191C251.709 109.82 244.2 109.087 233.969 108.455C210.893 107.03 195.747 108.13 189.432 109.821C177.696 112.965 167.264 118.334 161.386 122.199C151.232 128.878 144.022 146.166 141.681 154.418C140.668 157.987 138.131 172.13 135.343 197.31C133.941 209.974 134.38 222.988 134.687 232.065L134.702 232.502C135.164 246.218 137.48 255.228 140.105 263.42C144.701 277.76 154.189 284.984 159.621 289.946C165.222 295.063 174.596 301.693 191.472 309.605C203.123 315.068 212.744 316.292 218.91 316.756C236.271 318.065 244.371 314.862 258.049 309.454L258.711 309.192C268.087 305.486 275.61 301.451 282.901 297.26C289.655 293.377 294.828 287.827 300.097 281.629C307.576 272.832 309.084 266.138 311.727 261.022C316.761 251.282 318.079 232.404 319.166 221.875C321.749 196.871 317.169 191.794 313.145 179.89C310.95 173.398 308.805 169.175 307.095 164.682C305.701 161.018 299.755 152.895 293.041 145.738ZM293.041 145.738C292.267 144.913 291.482 144.1 290.693 143.308C289.29 142.216 288.063 141.296 286.971 140.516C285.879 139.735 284.959 139.122 283.082 136.631M109.304 79.0151C103.449 76.2551 94.7699 68.8115 86.8755 61.0798C81.8756 56.1828 80.1985 51.1549 77.8707 47.4331C77.0947 45.5791 75.8587 44.3246 75.0781 43.7066C75.2175 43.3953 76.4442 43.0886 79.5666 42.7727M222.678 50.207C223.914 39.7246 225.15 27.3092 225.619 22.5001C225.772 21.4082 226.079 20.4882 226.697 20.1676C227.315 19.847 228.235 20.1537 230.112 20.4696M349.062 81.803C357.082 73.1606 367.611 64.481 373.967 59.3699C385.609 50.0084 389.932 48.9804 393.654 47.2705C394.588 46.8058 395.508 46.1925 396.595 45.8765C397.682 45.5606 398.909 45.5606 400.173 45.5606M416.9 191.46C420.209 191.46 443.199 190.846 449.249 190.377C451.879 189.917 456.209 189.601 461.009 190.061C462.742 190.521 463.049 191.441 463.365 192.389M360.213 346.652C350.642 342.015 343.189 339.533 341.637 339.371C336.816 338.866 347.185 348.176 361.087 362.241C367.945 368.323 372.276 373.267 381.397 382.704C383.436 384.744 384.356 385.664 387.163 387.541M260.779 398.692C260.779 396.546 260.779 394.399 260.166 392.68C259.552 390.961 258.326 389.734 257.387 390.175C250.97 393.193 254.274 404.231 251.96 421.548C251.486 426.85 250.873 431.19 249.79 436.291C249.321 438.633 249.014 440.473 248.698 443.298M107.445 388.47C108.365 386.63 109.285 384.79 109.299 383.535C109.313 382.281 108.393 381.668 107.306 381.505C104.992 381.649 100.048 384.725 91.0992 390.747C85.8301 394.009 79.0834 397.689 73.0616 401.48M85.1424 269.52C80.849 268.907 71.8907 268.898 60.9018 269.516C56.6595 269.827 55.1262 270.134 53.4163 270.292C51.7064 270.45 49.8664 270.45 47.9706 269.52M76.7787 171.015C56.1205 159.585 34.3658 152.132 29.5567 150.422C27.5447 149.344 25.6769 148.099 25.3563 147.17C25.9557 146.854 28.1023 146.854 31.2433 147.783" stroke="black" stroke-width="40" stroke-linecap="round"/>
</svg>
