<svg width="480" height="445" viewBox="0 0 480 445" fill="none" xmlns="http://www.w3.org/2000/svg">
<path d="M292.215 24.1477C263.876 17.5898 230.096 19.7539 211.102 24.1313C196.091 27.591 179.489 35.0338 165.224 42.1491C145.689 51.8934 127.87 76.4796 115.124 95.1204C99.8683 117.43 105.603 156.158 118.698 187.439C140.671 239.93 193.026 248.165 227.739 258.559C276.527 273.168 310.054 237.344 326.422 224.212C344.507 209.703 349.148 181.602 352.817 167.388C358.292 146.178 361.799 101.006 350.808 69.0528C317.55 35.0994 304.93 28.5415 292.263 24.1641L292.215 24.1477ZM292.215 24.1477L282.727 20.8688M20.6612 381.213C20.6612 388.664 20.6612 394.695 20.5291 398.413M20.5291 398.413C20.4737 399.971 20.3951 401.123 20.2835 401.803C19.8485 404.452 19.9017 402.594 20.5291 398.413ZM20.5291 398.413C21.5597 391.544 24.1396 378.405 28.6501 368.68C33.386 358.469 35.1282 345.411 44.6623 324.066C49.7739 312.621 54.2193 303.429 59.5528 294.262C66.3782 282.53 80.1318 272.893 87.3996 264.881C94.7391 256.79 105.312 252.291 114.48 248.457C123.395 244.728 135.802 243.867 146.527 241.967C148.827 241.578 151.094 241.578 153.394 241.2C155.695 240.823 157.961 240.067 164.874 237M457.245 385.102C459.836 393.97 459.924 408.691 459.924 416.393C459.924 450.681 456.124 371.447 453.445 362.279C450.855 353.411 447.746 342.467 443.911 332.521C440.177 322.833 436.3 311.931 428.288 300.863C418.14 286.844 400.453 272.238 391.285 268.026C381.465 263.514 372.984 256.214 363.816 250.48C355.266 245.133 345.515 240.191 336.347 234.457C331.78 232.545 327.179 231.011 322.99 231C321.067 231.744 319.557 234.01 318 236.345" stroke="black" stroke-width="40" stroke-linecap="round"/>
</svg>
